<svg xmlns="http://www.w3.org/2000/svg" xmlns:xlink="http://www.w3.org/1999/xlink" width="32" height="32" viewBox="0 0 32 32"><defs><clipPath id="a"><rect width="32" height="32" transform="translate(1235 1179)" fill="#fff" stroke="#707070" stroke-width="1"/></clipPath></defs><g transform="translate(-1235 -1179)" clip-path="url(#a)"><path d="M31.992,5.074a12.917,12.917,0,0,1-3.767,1.032,6.6,6.6,0,0,0,2.887-3.631,13.209,13.209,0,0,1-4.166,1.593,6.572,6.572,0,0,0-11.184,5.986A18.635,18.635,0,0,1,2.235,3.195a6.57,6.57,0,0,0,2.029,8.759,6.6,6.6,0,0,1-2.975-.818v.082a6.563,6.563,0,0,0,5.266,6.436,6.579,6.579,0,0,1-1.731.232,6.851,6.851,0,0,1-1.238-.118,6.583,6.583,0,0,0,6.13,4.56,13.167,13.167,0,0,1-8.153,2.811A13.119,13.119,0,0,1,0,25.044,18.566,18.566,0,0,0,10.06,27.993c12.069,0,18.675-10,18.675-18.675,0-.288-.006-.568-.018-.85A13.174,13.174,0,0,0,31.99,5.076Z" transform="translate(1235.008 1179.503)"/></g></svg>