<svg xmlns="http://www.w3.org/2000/svg" viewBox="0 0 372.09 151.64"><defs><style>.cls-1{fill:#fff;}</style></defs><g id="Camada_2" data-name="Camada 2"><g id="Camada_1-2" data-name="Camada 1"><path class="cls-1" d="M0,97.92H6.77c.34,0,.8,0,1.38,0a13.74,13.74,0,0,1,1.89.22,11.1,11.1,0,0,1,2.07.58A5.89,5.89,0,0,1,14,99.92a6.23,6.23,0,0,1,1.38,1.93,6.72,6.72,0,0,1,.54,2.84,6.54,6.54,0,0,1-.63,3,6.08,6.08,0,0,1-1.6,2,6.78,6.78,0,0,1-2.13,1.11,14.59,14.59,0,0,1-2.22.51l7.49,12.37H14.11L6.88,111.45H2.4v12.23H0Zm2.4,11.35H7.49a8.56,8.56,0,0,0,3.08-.47,4.94,4.94,0,0,0,1.83-1.17,3.64,3.64,0,0,0,.9-1.49,5.43,5.43,0,0,0,.23-1.45,5.49,5.49,0,0,0-.23-1.46,3.71,3.71,0,0,0-.9-1.49,4.93,4.93,0,0,0-1.83-1.16,8.33,8.33,0,0,0-3.08-.48H2.4Z"/><path class="cls-1" d="M21.57,97.92H24v25.76h-2.4Z"/><path class="cls-1" d="M52.24,119.64a11,11,0,0,1-4.3,3.6,12.69,12.69,0,0,1-5.27,1.09,14.07,14.07,0,0,1-5.4-1,12.14,12.14,0,0,1-4.2-2.8,12.7,12.7,0,0,1-2.73-4.29,14.62,14.62,0,0,1-1-5.44,14.44,14.44,0,0,1,1-5.42,12.85,12.85,0,0,1,2.73-4.28,12.16,12.16,0,0,1,4.2-2.81,13.89,13.89,0,0,1,5.4-1,12.93,12.93,0,0,1,4.89.92,9.73,9.73,0,0,1,4,3.11l-2,1.64a7.05,7.05,0,0,0-3.07-2.65,9.3,9.3,0,0,0-3.84-.84,11.36,11.36,0,0,0-4.53.87,10.05,10.05,0,0,0-3.44,2.4,10.75,10.75,0,0,0-2.18,3.6,13.55,13.55,0,0,0,0,9,10.56,10.56,0,0,0,2.18,3.6,10.22,10.22,0,0,0,3.44,2.41,11.36,11.36,0,0,0,4.53.87,9.42,9.42,0,0,0,4.09-1A9.84,9.84,0,0,0,48.67,120a7.94,7.94,0,0,0,1.6-1.8Z"/><path class="cls-1" d="M64.53,97.92H67l10.84,25.76H75.15l-2.8-6.84H58.71l-2.91,6.84H53.29Zm1.13,2.62-6,14.11H71.48Z"/><path class="cls-1" d="M81.56,97.92h6.76c.34,0,.8,0,1.38,0a13.7,13.7,0,0,1,1.9.22,11.32,11.32,0,0,1,2.07.58,5.78,5.78,0,0,1,3.27,3.09,6.57,6.57,0,0,1,.55,2.84,6.41,6.41,0,0,1-.64,3,6,6,0,0,1-1.6,2,6.57,6.57,0,0,1-2.13,1.11,14.07,14.07,0,0,1-2.22.51l7.5,12.37H95.67l-7.24-12.23H84v12.23h-2.4ZM84,109.27h5.09a8.5,8.5,0,0,0,3.07-.47A5.07,5.07,0,0,0,94,107.63a3.62,3.62,0,0,0,.89-1.49,5.09,5.09,0,0,0,.24-1.45,5.16,5.16,0,0,0-.24-1.46,3.68,3.68,0,0,0-.89-1.49,5.06,5.06,0,0,0-1.84-1.16,8.27,8.27,0,0,0-3.07-.48H84Z"/><path class="cls-1" d="M102.8,97.92h8a17.07,17.07,0,0,1,5.67.82,12.68,12.68,0,0,1,3.87,2.09,10.36,10.36,0,0,1,2.44,2.82,13.9,13.9,0,0,1,1.84,5.53c.07.76.11,1.3.11,1.62s0,.85-.11,1.62a13.9,13.9,0,0,1-1.84,5.53,10.36,10.36,0,0,1-2.44,2.82,12.68,12.68,0,0,1-3.87,2.09,17.33,17.33,0,0,1-5.67.82h-8Zm2.4,23.57h5a17.38,17.38,0,0,0,4.76-.63,11.06,11.06,0,0,0,3.86-2,9.12,9.12,0,0,0,2.58-3.33,12.5,12.5,0,0,0,0-9.56,9.12,9.12,0,0,0-2.58-3.33,10.9,10.9,0,0,0-3.86-2,17.38,17.38,0,0,0-4.76-.64h-5Z"/><path class="cls-1" d="M128.41,110.8a14.64,14.64,0,0,1,1-5.42,12.85,12.85,0,0,1,2.73-4.28,12.16,12.16,0,0,1,4.2-2.81,14.8,14.8,0,0,1,10.8,0,12.3,12.3,0,0,1,4.21,2.81,13,13,0,0,1,2.72,4.28,14.44,14.44,0,0,1,1,5.42,14.62,14.62,0,0,1-1,5.44,12.83,12.83,0,0,1-2.72,4.29,12.27,12.27,0,0,1-4.21,2.8,15.08,15.08,0,0,1-10.8,0,12.14,12.14,0,0,1-4.2-2.8,12.7,12.7,0,0,1-2.73-4.29A14.82,14.82,0,0,1,128.41,110.8Zm2.4,0a12.79,12.79,0,0,0,.76,4.47,10.43,10.43,0,0,0,2.19,3.6,10.18,10.18,0,0,0,3.43,2.41,12.23,12.23,0,0,0,9.06,0,10.22,10.22,0,0,0,3.44-2.41,10.56,10.56,0,0,0,2.18-3.6,13.55,13.55,0,0,0,0-9,10.75,10.75,0,0,0-2.18-3.6,10.05,10.05,0,0,0-3.44-2.4,12.23,12.23,0,0,0-9.06,0,10,10,0,0,0-3.43,2.4,10.62,10.62,0,0,0-2.19,3.6A12.89,12.89,0,0,0,130.81,110.8Z"/><path class="cls-1" d="M169.88,97.92H173l15.68,22.55h.07V97.92h2.4v25.76H188l-15.68-22.56h-.07v22.56h-2.4Z"/><path class="cls-1" d="M198.18,97.92h2.4v25.76h-2.4Z"/><path class="cls-1" d="M208.33,118.91a6.24,6.24,0,0,0,2.45,2.44,7.27,7.27,0,0,0,3.44.8,6.74,6.74,0,0,0,2.26-.37,5.79,5.79,0,0,0,1.83-1,4.82,4.82,0,0,0,1.24-1.59,4.69,4.69,0,0,0,.45-2.09,4,4,0,0,0-.56-2.22,4.5,4.5,0,0,0-1.51-1.43,11,11,0,0,0-2.13-1l-2.43-.8a24.47,24.47,0,0,1-2.44-.91,8,8,0,0,1-2.13-1.33,6,6,0,0,1-1.51-2.05,7.28,7.28,0,0,1-.56-3.06,6.56,6.56,0,0,1,.67-3,6.36,6.36,0,0,1,1.82-2.22,7.85,7.85,0,0,1,2.64-1.35,10.7,10.7,0,0,1,3.12-.45,10.23,10.23,0,0,1,3.91.74A7.46,7.46,0,0,1,222,100.5l-2.07,1.5a5.92,5.92,0,0,0-2.13-1.91,6.07,6.07,0,0,0-2.89-.64,7.73,7.73,0,0,0-2.22.31,5.42,5.42,0,0,0-1.83.91,4.41,4.41,0,0,0-1.26,1.51,4.63,4.63,0,0,0-.47,2.14,4.17,4.17,0,0,0,1,3,6.85,6.85,0,0,0,2.46,1.64,25,25,0,0,0,3.2,1,15.27,15.27,0,0,1,3.2,1.22,6.87,6.87,0,0,1,2.45,2.13,6.29,6.29,0,0,1,1,3.76,6.81,6.81,0,0,1-2.42,5.37,7.71,7.71,0,0,1-2.57,1.4,9.88,9.88,0,0,1-3,.47,12.17,12.17,0,0,1-4.69-.89,8.48,8.48,0,0,1-3.67-3Z"/><path class="cls-1" d="M227.86,97.92h2.4v11.35h14.41V97.92h2.4v25.76h-2.4V111.45H230.26v12.23h-2.4Z"/><path class="cls-1" d="M254.12,97.92h2.41v25.76h-2.41Z"/><path class="cls-1" d="M263.33,97.92h3.6l9.38,21.61,9.39-21.61h3.42v25.76h-2.4V101h-.08l-9.82,22.7h-1.05l-10-22.7h-.07v22.7h-2.4Z"/><path class="cls-1" d="M294.25,110.8a14.44,14.44,0,0,1,1-5.42A12.85,12.85,0,0,1,298,101.1a12.16,12.16,0,0,1,4.2-2.81,14.8,14.8,0,0,1,10.8,0,12.16,12.16,0,0,1,4.2,2.81,12.85,12.85,0,0,1,2.73,4.28,14.44,14.44,0,0,1,1,5.42,14.62,14.62,0,0,1-1,5.44,12.7,12.7,0,0,1-2.73,4.29,12.14,12.14,0,0,1-4.2,2.8,15.08,15.08,0,0,1-10.8,0,12.14,12.14,0,0,1-4.2-2.8,12.7,12.7,0,0,1-2.73-4.29A14.62,14.62,0,0,1,294.25,110.8Zm2.4,0a12.79,12.79,0,0,0,.76,4.47,10.56,10.56,0,0,0,2.18,3.6,10.32,10.32,0,0,0,3.44,2.41,12.23,12.23,0,0,0,9.06,0,10.22,10.22,0,0,0,3.44-2.41,10.56,10.56,0,0,0,2.18-3.6,13.55,13.55,0,0,0,0-9,10.75,10.75,0,0,0-2.18-3.6,10.05,10.05,0,0,0-3.44-2.4,12.23,12.23,0,0,0-9.06,0,10.15,10.15,0,0,0-3.44,2.4,10.75,10.75,0,0,0-2.18,3.6A12.89,12.89,0,0,0,296.65,110.8Z"/><path class="cls-1" d="M332,100.1h-8.8V97.92h20v2.18h-8.8v23.58H332Z"/><path class="cls-1" d="M345.46,110.8a14.44,14.44,0,0,1,1-5.42,13,13,0,0,1,2.72-4.28,12.3,12.3,0,0,1,4.21-2.81,14.8,14.8,0,0,1,10.8,0,12.16,12.16,0,0,1,4.2,2.81,12.85,12.85,0,0,1,2.73,4.28,14.64,14.64,0,0,1,1,5.42,14.82,14.82,0,0,1-1,5.44,12.7,12.7,0,0,1-2.73,4.29,12.14,12.14,0,0,1-4.2,2.8,15.08,15.08,0,0,1-10.8,0,12.27,12.27,0,0,1-4.21-2.8,12.83,12.83,0,0,1-2.72-4.29A14.62,14.62,0,0,1,345.46,110.8Zm2.41,0a12.79,12.79,0,0,0,.76,4.47,10.56,10.56,0,0,0,2.18,3.6,10.22,10.22,0,0,0,3.44,2.41,12.23,12.23,0,0,0,9.06,0,10.32,10.32,0,0,0,3.44-2.41,10.56,10.56,0,0,0,2.18-3.6,13.55,13.55,0,0,0,0-9,10.75,10.75,0,0,0-2.18-3.6,10.15,10.15,0,0,0-3.44-2.4,12.23,12.23,0,0,0-9.06,0,10.05,10.05,0,0,0-3.44,2.4,10.75,10.75,0,0,0-2.18,3.6A12.89,12.89,0,0,0,347.87,110.8Z"/><path class="cls-1" d="M48.75,144.91a4.56,4.56,0,0,1-.44,1.32,4.08,4.08,0,0,1-.81,1.06,3.89,3.89,0,0,1-1.14.7,4.07,4.07,0,0,1-1.48.25,3.57,3.57,0,0,1-1.4-.26,2.42,2.42,0,0,1-1-.71,2.44,2.44,0,0,1-.5-1.05,3.27,3.27,0,0,1,0-1.32l1-5.06a.36.36,0,0,0-.16-.43,1.37,1.37,0,0,0-.53-.15.22.22,0,0,1-.21-.23,1,1,0,0,1,0-.26,14.86,14.86,0,0,0,1.56.09l.77,0,.86-.07s0,.09,0,.13,0,.07,0,.1a.25.25,0,0,1,0,.15.27.27,0,0,1-.17.08,1.91,1.91,0,0,0-.61.19.57.57,0,0,0-.31.4l-.93,4.84a3.4,3.4,0,0,0,0,1.05,2.25,2.25,0,0,0,.27.91,1.71,1.71,0,0,0,.63.65,1.88,1.88,0,0,0,1,.25,3.19,3.19,0,0,0,1-.15,2.61,2.61,0,0,0,.88-.48,2.94,2.94,0,0,0,.7-.87,4.81,4.81,0,0,0,.46-1.33l.92-4.84a.39.39,0,0,0-.14-.42,1.36,1.36,0,0,0-.57-.2c-.11,0-.17-.09-.17-.23a.38.38,0,0,1,0-.1.69.69,0,0,1,0-.13l.69.07.55,0h.56l.68-.06,0,.13s0,.07,0,.1a.19.19,0,0,1-.18.21,1.58,1.58,0,0,0-.59.2.59.59,0,0,0-.28.39Z"/><path class="cls-1" d="M59.77,143.15a1,1,0,0,0-.52.2,2.62,2.62,0,0,0-.58.54,5.54,5.54,0,0,0-.57.79,7.08,7.08,0,0,0-.49.95,7.63,7.63,0,0,0-.34,1,4.59,4.59,0,0,0-.13,1,1.58,1.58,0,0,0,0,.38l-.58.09-.57.13c-.09,0-.13-.11-.13-.17a.75.75,0,0,1,0-.2,1.45,1.45,0,0,1,.06-.19l0-.17a2.13,2.13,0,0,0,.06-.28l.62-3.22c.07-.37.11-.62.13-.75s0-.22,0-.28,0-.19-.13-.19l-.16.05a1.38,1.38,0,0,0-.22.1l-.23.1-.16,0s-.09,0-.13-.09a.77.77,0,0,1-.07-.2l.6-.33.67-.33.56-.24a1.1,1.1,0,0,1,.32-.1.25.25,0,0,1,.17.05.17.17,0,0,1,.07.16v.1l0,.14-.45,2.13h.06a8.64,8.64,0,0,1,1.39-2,1.82,1.82,0,0,1,1.24-.61.61.61,0,0,1,.24,0,.49.49,0,0,1,.15.09,6,6,0,0,0-.23.68,5.24,5.24,0,0,0-.16.79h-.22A.47.47,0,0,0,59.77,143.15Z"/><path class="cls-1" d="M69.09,141.81A2.36,2.36,0,0,1,70,142a1.65,1.65,0,0,1,.63.5,2.23,2.23,0,0,1,.36.76,3.58,3.58,0,0,1,.12.95,4.45,4.45,0,0,1-.33,1.78,3.89,3.89,0,0,1-.83,1.27,3.16,3.16,0,0,1-1.12.75,3.25,3.25,0,0,1-1.22.25,2.19,2.19,0,0,1-.85-.15,1.48,1.48,0,0,1-.56-.46,1.93,1.93,0,0,1-.3-.73,4.78,4.78,0,0,1-.09-1,4.26,4.26,0,0,1,.32-1.7,4.53,4.53,0,0,1,.8-1.3A3.6,3.6,0,0,1,68,142.1,2.31,2.31,0,0,1,69.09,141.81ZM68,147.69a1.34,1.34,0,0,0,.79-.26,2.13,2.13,0,0,0,.62-.7,4,4,0,0,0,.41-1.07,6.45,6.45,0,0,0,.14-1.36,3.94,3.94,0,0,0-.21-1.42.78.78,0,0,0-.76-.52,1.22,1.22,0,0,0-.83.31,2.56,2.56,0,0,0-.62.81,4.52,4.52,0,0,0-.37,1.11,5.44,5.44,0,0,0-.13,1.2,3.51,3.51,0,0,0,.22,1.42A.75.75,0,0,0,68,147.69Z"/><path class="cls-1" d="M78.76,139.28a.78.78,0,0,0,0-.14.13.13,0,0,0-.12-.07l-.15,0-.23,0-.22,0-.14,0c-.12,0-.19-.1-.19-.3.43-.12.82-.23,1.18-.35l1.08-.39a.37.37,0,0,1,.14.14.28.28,0,0,1,0,.13.91.91,0,0,1,0,.23l-1.62,8.26c0,.05,0,.1,0,.16s0,.1,0,.12a.15.15,0,0,0,.17.17.41.41,0,0,0,.21-.05l.21-.11.19-.11a.24.24,0,0,1,.14-.05c.1,0,.16.09.2.28a5.23,5.23,0,0,1-.52.35c-.18.11-.36.2-.53.29a4.5,4.5,0,0,1-.48.2,1,1,0,0,1-.37.08.8.8,0,0,1-.3-.06c-.09,0-.14-.15-.14-.31s0-.07,0-.14a.61.61,0,0,1,0-.15l1.33-6.85c0-.27.1-.54.13-.81S78.76,139.44,78.76,139.28Z"/><path class="cls-1" d="M88.78,141.81a2.31,2.31,0,0,1,.91.17,1.65,1.65,0,0,1,.63.5,2.23,2.23,0,0,1,.36.76,3.58,3.58,0,0,1,.12.95,4.46,4.46,0,0,1-.32,1.78,4.05,4.05,0,0,1-.83,1.27,3.41,3.41,0,0,1-2.35,1,2.1,2.1,0,0,1-.84-.15,1.41,1.41,0,0,1-.56-.46,1.93,1.93,0,0,1-.3-.73,4.13,4.13,0,0,1-.1-1,4.44,4.44,0,0,1,.32-1.7,4.56,4.56,0,0,1,.81-1.3,3.69,3.69,0,0,1,1.06-.83A2.37,2.37,0,0,1,88.78,141.81Zm-1.12,5.88a1.33,1.33,0,0,0,.78-.26,2.15,2.15,0,0,0,.63-.7,4,4,0,0,0,.4-1.07,5.86,5.86,0,0,0,.14-1.36,3.94,3.94,0,0,0-.21-1.42.76.76,0,0,0-.75-.52,1.27,1.27,0,0,0-.84.31,2.54,2.54,0,0,0-.61.81,4.53,4.53,0,0,0-.38,1.11,6.12,6.12,0,0,0-.13,1.2,3.69,3.69,0,0,0,.22,1.42A.77.77,0,0,0,87.66,147.69Z"/><path class="cls-1" d="M96.54,150.08a1.84,1.84,0,0,0,.61.72,1.58,1.58,0,0,0,.9.29,1.4,1.4,0,0,0,1-.49,2.94,2.94,0,0,0,.65-1.42l.69-3.4h0a5.47,5.47,0,0,1-1.32,1.85,2.12,2.12,0,0,1-1.36.61,1.54,1.54,0,0,1-.43-.06.85.85,0,0,1-.37-.23,1.16,1.16,0,0,1-.25-.44,2,2,0,0,1-.1-.71,5.71,5.71,0,0,1,.35-2.08,5.09,5.09,0,0,1,.9-1.57,4.1,4.1,0,0,1,1.22-1,2.87,2.87,0,0,1,1.31-.34,8.79,8.79,0,0,1,.92,0,9.83,9.83,0,0,1,1,.16l-1.3,6.66A3.78,3.78,0,0,1,99.59,151a3.07,3.07,0,0,1-1,.52,3,3,0,0,1-.93.16,3.94,3.94,0,0,1-1.66-.28c.06-.21.12-.39.15-.54a3.4,3.4,0,0,0,.1-.59ZM101,142.5a1.87,1.87,0,0,0-.39-.09,3.44,3.44,0,0,0-.43,0,1.8,1.8,0,0,0-1.06.32,2.42,2.42,0,0,0-.76.85,4.45,4.45,0,0,0-.45,1.26,7.59,7.59,0,0,0-.15,1.54,1.46,1.46,0,0,0,.14.76.46.46,0,0,0,.42.24.88.88,0,0,0,.56-.27,3.76,3.76,0,0,0,.6-.68,7.56,7.56,0,0,0,.58-.94,9.18,9.18,0,0,0,.49-1.06,8.25,8.25,0,0,0,.33-1A3.67,3.67,0,0,0,101,142.5Z"/><path class="cls-1" d="M109.46,146.91s0,.09,0,.15,0,.11,0,.13a.15.15,0,0,0,.17.17.41.41,0,0,0,.21-.05l.21-.11.19-.11a.26.26,0,0,1,.14-.05c.1,0,.17.09.2.28-.16.12-.33.24-.51.35l-.54.29a4.5,4.5,0,0,1-.48.2,1,1,0,0,1-.37.08.72.72,0,0,1-.29-.06c-.1,0-.15-.15-.15-.31s0-.07,0-.14a.61.61,0,0,1,0-.15c.2-1,.37-1.82.49-2.42s.22-1.06.28-1.38l.12-.63a1.5,1.5,0,0,0,0-.18c0-.11,0-.17-.13-.17a.58.58,0,0,0-.17,0l-.24.1-.23.1a.51.51,0,0,1-.17,0,.13.13,0,0,1-.12-.09.76.76,0,0,1-.08-.2l.6-.31.66-.34c.21-.1.4-.19.57-.25a1,1,0,0,1,.33-.1.21.21,0,0,1,.24.24.82.82,0,0,1,0,.21Zm.72-6.62a.57.57,0,0,1-.43-.16.61.61,0,0,1-.15-.43,1,1,0,0,1,.26-.69.82.82,0,0,1,.63-.31.45.45,0,0,1,.4.19.77.77,0,0,1,.13.47.94.94,0,0,1-.25.64A.74.74,0,0,1,110.18,140.29Z"/><path class="cls-1" d="M120.4,145.72h-.06a9.39,9.39,0,0,1-.72,1.18,5.08,5.08,0,0,1-.73.78,2.86,2.86,0,0,1-.71.43,1.8,1.8,0,0,1-.66.13,1.29,1.29,0,0,1-.4-.06.83.83,0,0,1-.34-.22,1.1,1.1,0,0,1-.24-.43,2.53,2.53,0,0,1-.08-.68,5.55,5.55,0,0,1,.39-2.14,5.48,5.48,0,0,1,1-1.58,4.19,4.19,0,0,1,1.25-1,2.78,2.78,0,0,1,1.26-.34,8.19,8.19,0,0,1,.87,0,8,8,0,0,1,.94.16l-1,4.91a1.3,1.3,0,0,0,0,.26c0,.12.06.18.16.18a.41.41,0,0,0,.21-.05l.21-.11.2-.11a.26.26,0,0,1,.15-.05c.09,0,.16.09.19.28-.17.12-.34.24-.53.35s-.36.2-.53.29a4.5,4.5,0,0,1-.48.2,1,1,0,0,1-.37.08.64.64,0,0,1-.28-.06c-.09,0-.13-.14-.13-.28a1,1,0,0,1,0-.16,1.33,1.33,0,0,1,0-.19Zm.51-3.22a2.11,2.11,0,0,0-.38-.09,2.58,2.58,0,0,0-.39,0,1.8,1.8,0,0,0-1,.3,2.64,2.64,0,0,0-.78.84,4.43,4.43,0,0,0-.5,1.27,6.84,6.84,0,0,0-.18,1.61,1.61,1.61,0,0,0,.13.73.39.39,0,0,0,.35.22,1,1,0,0,0,.61-.26,3.14,3.14,0,0,0,.63-.67,7.29,7.29,0,0,0,.59-.92,9.18,9.18,0,0,0,.49-1.06,8.25,8.25,0,0,0,.33-1A3.91,3.91,0,0,0,120.91,142.5Z"/><path class="cls-1" d="M137.46,145.2c0,.09,0,.18,0,.28s0,.19,0,.3a3.28,3.28,0,0,0,.06.63,1.62,1.62,0,0,0,.2.56,1,1,0,0,0,.39.39,1.18,1.18,0,0,0,.63.15,2.42,2.42,0,0,0,.77-.14,3.25,3.25,0,0,0,.8-.42.58.58,0,0,1,.2-.1.14.14,0,0,1,.15.12.79.79,0,0,1,0,.17c-.15.13-.31.26-.49.39a3.59,3.59,0,0,1-1.24.61,2.64,2.64,0,0,1-.74.1,1.86,1.86,0,0,1-1-.22,1.7,1.7,0,0,1-.6-.56,2.34,2.34,0,0,1-.29-.76,3.74,3.74,0,0,1-.08-.8,5,5,0,0,1,.23-1.48,4.54,4.54,0,0,1,.66-1.32,3.34,3.34,0,0,1,1-.94,2.67,2.67,0,0,1,1.36-.35,1.93,1.93,0,0,1,.58.08,1.64,1.64,0,0,1,.5.23,1.08,1.08,0,0,1,.35.41,1.28,1.28,0,0,1,.14.61,1.44,1.44,0,0,1-.28.9,2.05,2.05,0,0,1-.76.62,4.39,4.39,0,0,1-1.16.38A10.35,10.35,0,0,1,137.46,145.2Zm0-.43a3.82,3.82,0,0,0,1.92-.55,1.34,1.34,0,0,0,.56-1.11.85.85,0,0,0-.19-.6.65.65,0,0,0-.51-.21,1,1,0,0,0-.63.21,2.15,2.15,0,0,0-.53.55,3.55,3.55,0,0,0-.39.78A5.75,5.75,0,0,0,137.5,144.77Z"/><path class="cls-1" d="M159.15,148.24a5.39,5.39,0,0,1-1.91-.3,3.39,3.39,0,0,1-1.28-.81,3.1,3.1,0,0,1-.72-1.21,4.42,4.42,0,0,1-.23-1.48,6.44,6.44,0,0,1,.34-2.06,5.87,5.87,0,0,1,1-1.85,5.05,5.05,0,0,1,1.71-1.33,5.35,5.35,0,0,1,2.41-.51,8.64,8.64,0,0,1,1.37.11,10.24,10.24,0,0,1,1.27.31,7.57,7.57,0,0,0,0,.81,5.43,5.43,0,0,0,0,.57c0,.19,0,.38,0,.57a.5.5,0,0,1-.26.07c-.18,0-.27-.07-.28-.22a1.78,1.78,0,0,0-.69-1.3,2.82,2.82,0,0,0-1.52-.37,3.41,3.41,0,0,0-1.67.41,4,4,0,0,0-1.26,1.09,5,5,0,0,0-.78,1.63,7,7,0,0,0-.27,2,4.26,4.26,0,0,0,.2,1.38,3.13,3.13,0,0,0,.58,1,2.42,2.42,0,0,0,.9.67,2.7,2.7,0,0,0,1.19.25,2.65,2.65,0,0,0,1.53-.4,3.27,3.27,0,0,0,1-1.28.34.34,0,0,1,.34-.22l.17,0,.13.07a7.24,7.24,0,0,0-.38,1c-.11.34-.22.71-.33,1.13l-.67.1-.71.1-.66.06C159.48,148.24,159.3,148.24,159.15,148.24Z"/><path class="cls-1" d="M170,146.91s0,.09,0,.15a.78.78,0,0,0,0,.13.15.15,0,0,0,.17.17.39.39,0,0,0,.2-.05l.22-.11.19-.11a.22.22,0,0,1,.14-.05c.09,0,.16.09.2.28a5.23,5.23,0,0,1-.52.35c-.18.11-.36.2-.53.29a4.5,4.5,0,0,1-.48.2,1,1,0,0,1-.37.08.77.77,0,0,1-.3-.06c-.09,0-.14-.15-.14-.31a1,1,0,0,1,0-.14.61.61,0,0,1,0-.15c.21-1,.38-1.82.5-2.42s.21-1.06.27-1.38.11-.52.13-.63,0-.16,0-.18,0-.17-.12-.17a.51.51,0,0,0-.17,0l-.25.1-.23.1a.47.47,0,0,1-.16,0,.14.14,0,0,1-.13-.09.77.77,0,0,1-.07-.2l.59-.31.66-.34c.22-.1.41-.19.57-.25a1.13,1.13,0,0,1,.33-.1.21.21,0,0,1,.24.24.78.78,0,0,1,0,.21Zm.72-6.62a.54.54,0,0,1-.42-.16.57.57,0,0,1-.16-.43,1,1,0,0,1,.26-.69.84.84,0,0,1,.64-.31.46.46,0,0,1,.4.19.84.84,0,0,1,.12.47,1,1,0,0,1-.24.64A.76.76,0,0,1,170.68,140.29Z"/><path class="cls-1" d="M181,143.15a1,1,0,0,0-.52.2,3.15,3.15,0,0,0-.58.54,7.72,7.72,0,0,0-.57.79,7,7,0,0,0-.48.95,5.55,5.55,0,0,0-.34,1,4.06,4.06,0,0,0-.13,1,1.58,1.58,0,0,0,0,.38l-.57.09-.58.13a.21.21,0,0,1-.12-.17.71.71,0,0,1,0-.2,1.45,1.45,0,0,1,.06-.19,1.07,1.07,0,0,0,.06-.17,2.5,2.5,0,0,0,.05-.28L178,144c.06-.37.11-.62.12-.75s0-.22,0-.28,0-.19-.13-.19a.47.47,0,0,0-.16.05,1.46,1.46,0,0,0-.23.1l-.23.1-.16,0a.14.14,0,0,1-.12-.09.76.76,0,0,1-.08-.2l.6-.33.67-.33c.21-.09.4-.18.57-.24a1,1,0,0,1,.32-.1.26.26,0,0,1,.17.05.19.19,0,0,1,.07.16s0,0,0,.1a.68.68,0,0,1,0,.14l-.45,2.13H179a8.63,8.63,0,0,1,1.4-2,1.8,1.8,0,0,1,1.24-.61.59.59,0,0,1,.23,0,.49.49,0,0,1,.15.09c-.08.21-.16.44-.23.68a7,7,0,0,0-.15.79h-.23A.45.45,0,0,0,181,143.15Z"/><path class="cls-1" d="M188.8,146.26a3.11,3.11,0,0,0-.09.64.36.36,0,0,0,.14.32.53.53,0,0,0,.34.1,1.11,1.11,0,0,0,.66-.25,3.45,3.45,0,0,0,.67-.66,7.92,7.92,0,0,0,.64-.93,9.66,9.66,0,0,0,.53-1.07,8,8,0,0,0,.36-1.08,3.83,3.83,0,0,0,.13-.94,1.69,1.69,0,0,0,0-.38,9.22,9.22,0,0,0,1.12-.22.2.2,0,0,1,.11.17.68.68,0,0,1,0,.12,1,1,0,0,1,0,.15l-1,4.88c0,.17,0,.25.18.25a.36.36,0,0,0,.19-.05l.21-.1.19-.09a.26.26,0,0,1,.15-.05c.08,0,.14.08.17.25l-.54.36c-.19.11-.37.21-.54.29a3.46,3.46,0,0,1-.47.2,1.12,1.12,0,0,1-.35.07.66.66,0,0,1-.27-.06.3.3,0,0,1-.13-.29s0-.06,0-.13a.8.8,0,0,1,0-.18l.41-2h-.06a6.67,6.67,0,0,1-1.52,2,2.41,2.41,0,0,1-1.51.61,1,1,0,0,1-.71-.22.88.88,0,0,1-.26-.68,3,3,0,0,1,0-.4c0-.15,0-.3.07-.44l.7-3.26a.46.46,0,0,1,0-.1.84.84,0,0,0,0-.1c0-.16,0-.24-.13-.24a.59.59,0,0,0-.19,0l-.25.1-.23.1a.58.58,0,0,1-.17,0s-.08,0-.11-.09a1,1,0,0,1-.07-.18l.57-.33.65-.33.58-.26a1.09,1.09,0,0,1,.34-.1c.19,0,.28.08.28.24a.66.66,0,0,1,0,.14l0,.14Z"/><path class="cls-1" d="M203.47,143.15a1,1,0,0,0-.52.2,2.86,2.86,0,0,0-.58.54,5.54,5.54,0,0,0-.57.79,7.08,7.08,0,0,0-.49.95,7.63,7.63,0,0,0-.34,1,4.59,4.59,0,0,0-.13,1,1.58,1.58,0,0,0,0,.38l-.58.09-.57.13c-.09,0-.13-.11-.13-.17a.75.75,0,0,1,0-.2,1.45,1.45,0,0,1,.06-.19,1.22,1.22,0,0,0,.05-.17,2.13,2.13,0,0,0,.06-.28l.62-3.22c.07-.37.11-.62.13-.75s0-.22,0-.28,0-.19-.12-.19a.51.51,0,0,0-.17.05,1.38,1.38,0,0,0-.22.1l-.23.1-.16,0a.14.14,0,0,1-.12-.09.52.52,0,0,1-.08-.2l.6-.33.67-.33.56-.24a1.1,1.1,0,0,1,.32-.1.25.25,0,0,1,.17.05.17.17,0,0,1,.07.16v.1l0,.14-.45,2.13h.06a8.64,8.64,0,0,1,1.39-2,1.82,1.82,0,0,1,1.24-.61.61.61,0,0,1,.24,0,.49.49,0,0,1,.15.09,6,6,0,0,0-.23.68,5.24,5.24,0,0,0-.16.79h-.22A.46.46,0,0,0,203.47,143.15Z"/><path class="cls-1" d="M209.29,150.08a1.76,1.76,0,0,0,.61.72,1.55,1.55,0,0,0,.89.29,1.37,1.37,0,0,0,1.05-.49,2.94,2.94,0,0,0,.65-1.42l.7-3.4h-.06a5.33,5.33,0,0,1-1.31,1.85,2.14,2.14,0,0,1-1.37.61,1.52,1.52,0,0,1-.42-.06.8.8,0,0,1-.37-.23,1.31,1.31,0,0,1-.26-.44,2.32,2.32,0,0,1-.09-.71,5.93,5.93,0,0,1,.34-2.08,5.09,5.09,0,0,1,.9-1.57,4.27,4.27,0,0,1,1.23-1,2.84,2.84,0,0,1,1.31-.34,8.47,8.47,0,0,1,.91,0,10,10,0,0,1,1,.16l-1.3,6.66a3.78,3.78,0,0,1-1.35,2.29,3,3,0,0,1-1,.52,2.93,2.93,0,0,1-.93.16,3.89,3.89,0,0,1-1.65-.28l.15-.54a4.74,4.74,0,0,0,.1-.59Zm4.48-7.58a2,2,0,0,0-.4-.09,3.29,3.29,0,0,0-.42,0,1.8,1.8,0,0,0-1.06.32,2.33,2.33,0,0,0-.76.85,4.17,4.17,0,0,0-.46,1.26,7.59,7.59,0,0,0-.15,1.54,1.45,1.45,0,0,0,.15.76.45.45,0,0,0,.42.24.84.84,0,0,0,.55-.27,4.2,4.2,0,0,0,.61-.68,9,9,0,0,0,.58-.94,11.23,11.23,0,0,0,.49-1.06,8.25,8.25,0,0,0,.33-1A3.67,3.67,0,0,0,213.77,142.5Z"/><path class="cls-1" d="M222.2,146.91a.61.61,0,0,0,0,.15c0,.06,0,.11,0,.13a.15.15,0,0,0,.17.17.41.41,0,0,0,.21-.05l.21-.11.19-.11a.24.24,0,0,1,.14-.05c.1,0,.16.09.2.28a5.23,5.23,0,0,1-.52.35c-.18.11-.36.2-.53.29a4.5,4.5,0,0,1-.48.2,1,1,0,0,1-.37.08.8.8,0,0,1-.3-.06c-.09,0-.14-.15-.14-.31s0-.07,0-.14,0-.13,0-.15c.21-1,.38-1.82.5-2.42s.21-1.06.28-1.38l.12-.63a1.5,1.5,0,0,0,0-.18c0-.11,0-.17-.13-.17a.51.51,0,0,0-.17,0l-.24.1a1.33,1.33,0,0,0-.24.1.47.47,0,0,1-.16,0,.14.14,0,0,1-.13-.09.77.77,0,0,1-.07-.2l.6-.31.66-.34c.21-.1.4-.19.56-.25a1.09,1.09,0,0,1,.34-.1.21.21,0,0,1,.24.24.82.82,0,0,1,0,.21Zm.73-6.62a.56.56,0,0,1-.43-.16.61.61,0,0,1-.15-.43,1,1,0,0,1,.26-.69.81.81,0,0,1,.63-.31.45.45,0,0,1,.4.19.84.84,0,0,1,.12.47,1,1,0,0,1-.24.64A.75.75,0,0,1,222.93,140.29Z"/><path class="cls-1" d="M233.14,145.72h0a8.33,8.33,0,0,1-.73,1.18,4.61,4.61,0,0,1-.72.78,3.06,3.06,0,0,1-.71.43,1.84,1.84,0,0,1-.66.13,1.4,1.4,0,0,1-.41-.06.9.9,0,0,1-.34-.22,1.09,1.09,0,0,1-.23-.43,2.15,2.15,0,0,1-.09-.68,5.55,5.55,0,0,1,.39-2.14,5.71,5.71,0,0,1,1-1.58,4.22,4.22,0,0,1,1.26-1,2.77,2.77,0,0,1,1.25-.34,8,8,0,0,1,.87,0,8.19,8.19,0,0,1,.95.16l-1,4.91a1.3,1.3,0,0,0,0,.26c0,.12.05.18.16.18a.39.39,0,0,0,.2-.05l.22-.11.19-.11a.32.32,0,0,1,.15-.05c.1,0,.16.09.2.28l-.53.35c-.18.11-.36.2-.53.29a4.5,4.5,0,0,1-.48.2,1,1,0,0,1-.37.08.68.68,0,0,1-.29-.06c-.08,0-.12-.14-.12-.28a1,1,0,0,1,0-.16,1.29,1.29,0,0,1,0-.19Zm.51-3.22a1.82,1.82,0,0,0-.37-.09,2.87,2.87,0,0,0-.39,0,1.8,1.8,0,0,0-1,.3,2.64,2.64,0,0,0-.78.84,4.16,4.16,0,0,0-.5,1.27,6.84,6.84,0,0,0-.18,1.61,1.48,1.48,0,0,0,.13.73.39.39,0,0,0,.35.22,1,1,0,0,0,.61-.26,3.14,3.14,0,0,0,.63-.67,8.61,8.61,0,0,0,.59-.92,9.18,9.18,0,0,0,.49-1.06,8.13,8.13,0,0,0,.32-1A3.91,3.91,0,0,0,233.65,142.5Z"/><path class="cls-1" d="M251.17,147.11a.33.33,0,0,0,.19.4,2.29,2.29,0,0,0,.62.18.23.23,0,0,1,.2.24.38.38,0,0,1,0,.1.69.69,0,0,1,0,.13,15.86,15.86,0,0,0-1.67-.09l-.82,0-.85.07a1,1,0,0,0,0-.12v-.11a.19.19,0,0,1,.18-.21,3.33,3.33,0,0,0,.65-.2.54.54,0,0,0,.34-.41l1.41-7.29a.34.34,0,0,0-.14-.39,1.31,1.31,0,0,0-.53-.19c-.14,0-.21-.1-.21-.22a.77.77,0,0,1,0-.25l.87.07.82,0h1.13a3.36,3.36,0,0,1,2.08.57,1.88,1.88,0,0,1,.74,1.56,2.74,2.74,0,0,1-.13.85,2.3,2.3,0,0,1-.41.77,3.31,3.31,0,0,1-.76.66,4.06,4.06,0,0,1-1.15.48l2.06,3.49a.72.72,0,0,0,.36.33,3,3,0,0,0,.51.18.15.15,0,0,1,.12.17.52.52,0,0,1,0,.11.93.93,0,0,1,0,.13l-.74-.07-.61,0a.69.69,0,0,1-.46-.18,2.44,2.44,0,0,1-.41-.55l-2.16-3.69.06-.25a2.64,2.64,0,0,0,1.81-.59,2.31,2.31,0,0,0,.62-1.78,2.08,2.08,0,0,0-.09-.63,1.29,1.29,0,0,0-.3-.52,1.41,1.41,0,0,0-.55-.35,2.15,2.15,0,0,0-.81-.13h-.41Z"/><path class="cls-1" d="M265.47,141.81a2.36,2.36,0,0,1,.92.17,1.65,1.65,0,0,1,.63.5,2.23,2.23,0,0,1,.36.76,3.58,3.58,0,0,1,.12.95,4.45,4.45,0,0,1-.33,1.78,3.87,3.87,0,0,1-.82,1.27,3.28,3.28,0,0,1-1.13.75,3.21,3.21,0,0,1-1.22.25,2.1,2.1,0,0,1-.84-.15,1.41,1.41,0,0,1-.56-.46,1.8,1.8,0,0,1-.31-.73,4.78,4.78,0,0,1-.09-1,4.44,4.44,0,0,1,.32-1.7,4.35,4.35,0,0,1,.81-1.3,3.56,3.56,0,0,1,1.06-.83A2.31,2.31,0,0,1,265.47,141.81Zm-1.12,5.88a1.34,1.34,0,0,0,.79-.26,2.13,2.13,0,0,0,.62-.7,4,4,0,0,0,.41-1.07,6.45,6.45,0,0,0,.14-1.36,3.94,3.94,0,0,0-.21-1.42.76.76,0,0,0-.75-.52,1.25,1.25,0,0,0-.84.31,2.56,2.56,0,0,0-.62.81,4.52,4.52,0,0,0-.37,1.11,5.44,5.44,0,0,0-.13,1.2,3.51,3.51,0,0,0,.22,1.42A.76.76,0,0,0,264.35,147.69Z"/><path class="cls-1" d="M275.28,148.24a3.56,3.56,0,0,1-1-.13,3.61,3.61,0,0,1-.73-.28l1.38-7.1.12-.81a6.33,6.33,0,0,0,.05-.64q0-.18-.15-.18a2.13,2.13,0,0,0-.39,0,2.29,2.29,0,0,1-.36.05q-.18,0-.18-.3c.42-.12.82-.23,1.18-.35s.73-.25,1.09-.39a.37.37,0,0,1,.14.14.28.28,0,0,1,0,.13.91.91,0,0,1,0,.23l-1.11,5.54h.06a9.7,9.7,0,0,1,.81-1.19,4.22,4.22,0,0,1,.75-.73,2.07,2.07,0,0,1,.66-.36,1.71,1.71,0,0,1,.57-.1,1.21,1.21,0,0,1,.43.07,1,1,0,0,1,.37.23,1.15,1.15,0,0,1,.26.43,2.22,2.22,0,0,1,.09.69,5.55,5.55,0,0,1-.39,2.14,5.45,5.45,0,0,1-1,1.57,4.41,4.41,0,0,1-1.31,1A3.19,3.19,0,0,1,275.28,148.24Zm-.54-.76a1.69,1.69,0,0,0,.36.13,1.28,1.28,0,0,0,.38,0,2,2,0,0,0,1.07-.3,2.92,2.92,0,0,0,.84-.84,4.28,4.28,0,0,0,.54-1.26,6.1,6.1,0,0,0,.2-1.58,1.29,1.29,0,0,0-.16-.74.46.46,0,0,0-.39-.23,1.1,1.1,0,0,0-.64.25,4.08,4.08,0,0,0-.65.66,8.28,8.28,0,0,0-.6.93,9.75,9.75,0,0,0-.49,1,9.25,9.25,0,0,0-.33,1A3.34,3.34,0,0,0,274.74,147.48Z"/><path class="cls-1" d="M288.29,141.81a2.36,2.36,0,0,1,.92.17,1.65,1.65,0,0,1,.63.5,2.23,2.23,0,0,1,.36.76,3.58,3.58,0,0,1,.12.95A4.45,4.45,0,0,1,290,146a3.73,3.73,0,0,1-.83,1.27A3.16,3.16,0,0,1,288,148a3.21,3.21,0,0,1-1.22.25,2.1,2.1,0,0,1-.84-.15,1.34,1.34,0,0,1-.56-.46,1.8,1.8,0,0,1-.31-.73,4.78,4.78,0,0,1-.09-1,4.26,4.26,0,0,1,.32-1.7,4.53,4.53,0,0,1,.8-1.3,3.73,3.73,0,0,1,1.07-.83A2.31,2.31,0,0,1,288.29,141.81Zm-1.12,5.88a1.34,1.34,0,0,0,.79-.26,2.13,2.13,0,0,0,.62-.7,4,4,0,0,0,.41-1.07,6.45,6.45,0,0,0,.14-1.36,3.94,3.94,0,0,0-.21-1.42.78.78,0,0,0-.76-.52,1.22,1.22,0,0,0-.83.31,2.56,2.56,0,0,0-.62.81,4.52,4.52,0,0,0-.37,1.11,5.44,5.44,0,0,0-.13,1.2,3.51,3.51,0,0,0,.22,1.42A.75.75,0,0,0,287.17,147.69Zm2.24-9a1.37,1.37,0,0,1,.6.24.5.5,0,0,1,.24.38.51.51,0,0,1-.3.41c-.19.11-.36.22-.52.33l-.46.32a4.75,4.75,0,0,0-.5.36l-.58.45-.15-.13a.2.2,0,0,1-.06-.15.28.28,0,0,1,.07-.17Z"/><path class="cls-1" d="M297.62,141.74a4.87,4.87,0,0,0,.11-.87,1.69,1.69,0,0,0,0-.38l.57-.09a4.41,4.41,0,0,0,.59-.12.2.2,0,0,1,.11.17v.11c0,.06,0,.1,0,.14L298.7,142h1.45l-.08.31c0,.12-.05.24-.07.34l-.72-.09c-.25,0-.48,0-.7,0l-.78,4.43a1.53,1.53,0,0,0,0,.3c0,.23.14.34.41.34a1.23,1.23,0,0,0,.39-.05,1.52,1.52,0,0,0,.32-.12l.22-.1a.26.26,0,0,1,.15,0q.15,0,.18.27a3.85,3.85,0,0,1-.95.53,2.6,2.6,0,0,1-1,.2,1.2,1.2,0,0,1-.72-.16.58.58,0,0,1-.21-.49,1.45,1.45,0,0,1,0-.3l.89-4.84h-1a1.16,1.16,0,0,1,.09-.36.23.23,0,0,1,.22-.11h.81Z"/><path class="cls-1" d="M306.93,146.91l0,.15a.78.78,0,0,0,0,.13c0,.12.05.17.17.17a.39.39,0,0,0,.2-.05l.22-.11.19-.11a.22.22,0,0,1,.14-.05c.09,0,.16.09.2.28-.16.12-.34.24-.52.35s-.36.2-.53.29a4.5,4.5,0,0,1-.48.2,1.07,1.07,0,0,1-.37.08.73.73,0,0,1-.3-.06c-.09,0-.14-.15-.14-.31a1,1,0,0,1,0-.14.61.61,0,0,1,0-.15c.21-1,.37-1.82.5-2.42s.21-1.06.27-1.38l.12-.63a1.5,1.5,0,0,0,0-.18c0-.11,0-.17-.13-.17l-.17,0-.24.1-.23.1-.16,0a.14.14,0,0,1-.13-.09.77.77,0,0,1-.07-.2l.59-.31.66-.34c.22-.1.4-.19.57-.25a1.05,1.05,0,0,1,.33-.1.21.21,0,0,1,.24.24.82.82,0,0,1,0,.21Zm.72-6.62a.54.54,0,0,1-.42-.16.57.57,0,0,1-.16-.43,1,1,0,0,1,.26-.69.84.84,0,0,1,.63-.31.47.47,0,0,1,.41.19.84.84,0,0,1,.12.47,1,1,0,0,1-.24.64A.76.76,0,0,1,307.65,140.29Z"/><path class="cls-1" d="M317.23,142.35a1.39,1.39,0,0,0-.87.28,2.14,2.14,0,0,0-.62.76,4.13,4.13,0,0,0-.38,1.11,7.27,7.27,0,0,0-.13,1.35,3.3,3.3,0,0,0,.07.64,1.4,1.4,0,0,0,.21.53,1,1,0,0,0,.41.36,1.42,1.42,0,0,0,.65.14,2,2,0,0,0,.79-.16,4.56,4.56,0,0,0,.75-.41l.07,0,.07,0a.14.14,0,0,1,.15.11.83.83,0,0,1,.05.18c-.14.12-.3.24-.48.37a4.83,4.83,0,0,1-.59.35,3.84,3.84,0,0,1-.67.25,2.59,2.59,0,0,1-.74.1,1.83,1.83,0,0,1-.91-.2,1.72,1.72,0,0,1-.59-.51,2.09,2.09,0,0,1-.32-.73,3.77,3.77,0,0,1-.09-.83,5.35,5.35,0,0,1,.23-1.53,4.93,4.93,0,0,1,.66-1.34,3.42,3.42,0,0,1,1-.94,2.61,2.61,0,0,1,1.32-.35,4,4,0,0,1,1.7.39,3.92,3.92,0,0,0-.12.6c0,.26-.07.48-.09.68h-.21a.26.26,0,0,1-.26-.22,1.19,1.19,0,0,0-.43-.71A1.14,1.14,0,0,0,317.23,142.35Z"/><path class="cls-1" d="M328.27,145.72h0a8.33,8.33,0,0,1-.73,1.18,4.61,4.61,0,0,1-.72.78,3.06,3.06,0,0,1-.71.43,1.88,1.88,0,0,1-.66.13,1.4,1.4,0,0,1-.41-.06.9.9,0,0,1-.34-.22,1.09,1.09,0,0,1-.23-.43,2.15,2.15,0,0,1-.09-.68,5.55,5.55,0,0,1,.39-2.14,5.71,5.71,0,0,1,1-1.58,4.22,4.22,0,0,1,1.26-1,2.77,2.77,0,0,1,1.25-.34,8,8,0,0,1,.87,0,8.19,8.19,0,0,1,.95.16l-1,4.91a1.3,1.3,0,0,0,0,.26c0,.12.05.18.16.18a.39.39,0,0,0,.2-.05l.22-.11.19-.11a.29.29,0,0,1,.15-.05c.1,0,.16.09.2.28l-.53.35c-.18.11-.36.2-.53.29a4.5,4.5,0,0,1-.48.2,1,1,0,0,1-.37.08.68.68,0,0,1-.29-.06c-.08,0-.12-.14-.12-.28a1,1,0,0,1,0-.16,1.29,1.29,0,0,1,0-.19Zm.51-3.22a1.82,1.82,0,0,0-.37-.09,2.87,2.87,0,0,0-.39,0,1.8,1.8,0,0,0-1,.3,2.64,2.64,0,0,0-.78.84,4.16,4.16,0,0,0-.5,1.27,6.84,6.84,0,0,0-.18,1.61,1.48,1.48,0,0,0,.13.73.39.39,0,0,0,.35.22,1,1,0,0,0,.61-.26,3.14,3.14,0,0,0,.63-.67,8.61,8.61,0,0,0,.59-.92,9.18,9.18,0,0,0,.49-1.06,8.13,8.13,0,0,0,.32-1A3.91,3.91,0,0,0,328.78,142.5Z"/><path class="cls-1" d="M147.7,0V76.68h76.69V0Zm72.72,72.72H151.67V4h68.75Z"/><path class="cls-1" d="M164.06,46.42H178a18.42,18.42,0,0,0,5.12-.74l29.43,21.46V11.8H208V58.28L187.84,43.56A18.39,18.39,0,0,0,196.43,28,18.44,18.44,0,0,0,178,9.55H159.56V28.39l1,.72h0l11.24,8.3h5.32a14.52,14.52,0,0,0,2.1-.16l-15.13-11V14.05H178a13.91,13.91,0,0,1,5.42,1.09A13.93,13.93,0,0,1,191.93,28a14,14,0,0,1-6.15,11.56,14.84,14.84,0,0,1-2,1.13,15.79,15.79,0,0,1-5.82,1.23l0,0H159.56V67h4.5Z"/></g></g></svg>