<svg xmlns="http://www.w3.org/2000/svg" viewBox="0 0 372.12 124.33"><defs><style>.cls-1{fill:#fff;}</style></defs><g id="Camada_2" data-name="Camada 2"><g id="Camada_1-2" data-name="Camada 1"><path class="cls-1" d="M0,97.92H8.15a13.34,13.34,0,0,1,1.89.22,11.35,11.35,0,0,1,2.07.58A6,6,0,0,1,14,99.92a6.15,6.15,0,0,1,1.38,1.93,6.78,6.78,0,0,1,.54,2.84,6.61,6.61,0,0,1-.63,3,6.21,6.21,0,0,1-1.6,2,6.88,6.88,0,0,1-2.13,1.11,14.27,14.27,0,0,1-2.22.51l7.49,12.37H14.11L6.88,111.45H2.4v12.23H0Zm2.4,11.35H7.49a8.7,8.7,0,0,0,3.08-.47,5,5,0,0,0,1.83-1.17,3.69,3.69,0,0,0,.9-1.49,5.49,5.49,0,0,0,.23-1.45,5.56,5.56,0,0,0-.23-1.46,3.8,3.8,0,0,0-.9-1.49,5,5,0,0,0-1.83-1.16,8.28,8.28,0,0,0-3.08-.48H2.4Z"/><path class="cls-1" d="M21.57,97.92H24v25.76H21.6Z"/><path class="cls-1" d="M52.24,119.64a11,11,0,0,1-4.3,3.6,12.61,12.61,0,0,1-5.27,1.09,14.25,14.25,0,0,1-5.4-1,12.14,12.14,0,0,1-4.2-2.8,12.66,12.66,0,0,1-2.73-4.29,15.24,15.24,0,0,1,0-10.86,12.87,12.87,0,0,1,2.73-4.28,12.17,12.17,0,0,1,4.2-2.81,13.88,13.88,0,0,1,5.4-1,13,13,0,0,1,4.89.92,9.85,9.85,0,0,1,4,3.11l-2,1.64a7.05,7.05,0,0,0-3.07-2.65,9.25,9.25,0,0,0-3.84-.84,11.35,11.35,0,0,0-4.53.87,10.18,10.18,0,0,0-3.44,2.4,10.63,10.63,0,0,0-2.18,3.6,13.49,13.49,0,0,0,0,9,10.63,10.63,0,0,0,2.18,3.6,10.35,10.35,0,0,0,3.44,2.41,11.35,11.35,0,0,0,4.53.87,9.38,9.38,0,0,0,4.09-1A9.68,9.68,0,0,0,48.67,120a8.07,8.07,0,0,0,1.6-1.8Z"/><path class="cls-1" d="M64.53,97.92H67l10.84,25.76H75.15l-2.8-6.84H58.71l-2.91,6.84H53.29Zm1.13,2.62-6,14.11H71.48Z"/><path class="cls-1" d="M81.56,97.92H89.7a13.48,13.48,0,0,1,1.9.22,11.35,11.35,0,0,1,2.07.58,5.8,5.8,0,0,1,3.27,3.09,6.58,6.58,0,0,1,.55,2.84,6.46,6.46,0,0,1-.64,3,6,6,0,0,1-1.6,2,6.67,6.67,0,0,1-2.13,1.11,14,14,0,0,1-2.22.51l7.5,12.37H95.67l-7.24-12.23H84v12.23H81.6ZM84,109.27h5.09a8.68,8.68,0,0,0,3.07-.47A5,5,0,0,0,94,107.63a3.67,3.67,0,0,0,.89-1.49,4.53,4.53,0,0,0,0-2.91,3.67,3.67,0,0,0-.89-1.49,5,5,0,0,0-1.84-1.16,8.23,8.23,0,0,0-3.07-.48H84Z"/><path class="cls-1" d="M102.8,97.92h8a17,17,0,0,1,5.67.82,12.74,12.74,0,0,1,3.87,2.09,10.31,10.31,0,0,1,2.44,2.82,13.92,13.92,0,0,1,1.84,5.53c.07.76.11,1.3.11,1.62a10.61,10.61,0,0,1-.11,1.62,13.92,13.92,0,0,1-1.84,5.53,10.31,10.31,0,0,1-2.44,2.82,12.74,12.74,0,0,1-3.87,2.09,17.31,17.31,0,0,1-5.67.82h-8Zm2.4,23.57h5a17.39,17.39,0,0,0,4.76-.63,10.86,10.86,0,0,0,3.86-2,9.06,9.06,0,0,0,2.58-3.33,12.47,12.47,0,0,0,0-9.56,9.06,9.06,0,0,0-2.58-3.33,10.86,10.86,0,0,0-3.86-2,17.4,17.4,0,0,0-4.76-.64h-5Z"/><path class="cls-1" d="M128.41,110.8a14.79,14.79,0,0,1,1-5.42,12.87,12.87,0,0,1,2.73-4.28,12.17,12.17,0,0,1,4.2-2.81,14.8,14.8,0,0,1,10.8,0,12.21,12.21,0,0,1,4.21,2.81,13,13,0,0,1,2.72,4.28,15.24,15.24,0,0,1,0,10.86,12.78,12.78,0,0,1-2.72,4.29,12.18,12.18,0,0,1-4.21,2.8,15.12,15.12,0,0,1-10.8,0,12.14,12.14,0,0,1-4.2-2.8,12.66,12.66,0,0,1-2.73-4.29A14.86,14.86,0,0,1,128.41,110.8Zm2.4,0a12.85,12.85,0,0,0,.76,4.47,10.41,10.41,0,0,0,2.19,3.6,10.21,10.21,0,0,0,3.43,2.41,12.23,12.23,0,0,0,9.06,0,10.35,10.35,0,0,0,3.44-2.41,10.63,10.63,0,0,0,2.18-3.6,13.49,13.49,0,0,0,0-9,10.63,10.63,0,0,0-2.18-3.6,10.18,10.18,0,0,0-3.44-2.4,12.23,12.23,0,0,0-9.06,0,10,10,0,0,0-3.43,2.4,10.66,10.66,0,0,0-2.19,3.6A13,13,0,0,0,130.81,110.8Z"/><path class="cls-1" d="M169.88,97.92H173l15.68,22.55h.07V97.92h2.4v25.76H188l-15.68-22.56h-.07v22.56h-2.4Z"/><path class="cls-1" d="M198.18,97.92h2.4v25.76h-2.4Z"/><path class="cls-1" d="M208.33,118.91a6.25,6.25,0,0,0,2.45,2.44,7.22,7.22,0,0,0,3.44.8,6.7,6.7,0,0,0,2.26-.37,5.72,5.72,0,0,0,1.83-1,4.93,4.93,0,0,0,1.24-1.59,4.71,4.71,0,0,0,.45-2.09,4,4,0,0,0-.56-2.22,4.4,4.4,0,0,0-1.51-1.43,11.18,11.18,0,0,0-2.13-1l-2.43-.8a23.86,23.86,0,0,1-2.44-.91,8.11,8.11,0,0,1-2.13-1.33,6.1,6.1,0,0,1-1.51-2,7.3,7.3,0,0,1-.56-3.06,6.49,6.49,0,0,1,.67-3,6.32,6.32,0,0,1,1.82-2.22,8,8,0,0,1,2.64-1.35,11,11,0,0,1,3.12-.45,10.25,10.25,0,0,1,3.91.74A7.48,7.48,0,0,1,222,100.5l-2.07,1.5a5.84,5.84,0,0,0-2.13-1.91,6,6,0,0,0-2.89-.64,7.58,7.58,0,0,0-2.22.31,5.33,5.33,0,0,0-1.83.91,4.38,4.38,0,0,0-1.26,1.51,4.55,4.55,0,0,0-.47,2.14,4.21,4.21,0,0,0,1,3,6.82,6.82,0,0,0,2.46,1.64,25.25,25.25,0,0,0,3.2,1,15.3,15.3,0,0,1,3.2,1.22,6.71,6.71,0,0,1,2.45,2.13,6.33,6.33,0,0,1,1,3.76,6.81,6.81,0,0,1-2.42,5.37,7.67,7.67,0,0,1-2.57,1.4,9.85,9.85,0,0,1-3,.47,12.15,12.15,0,0,1-4.69-.89,8.47,8.47,0,0,1-3.67-3Z"/><path class="cls-1" d="M227.86,97.92h2.4v11.35h14.41V97.92h2.4v25.76h-2.4V111.45H230.26v12.23h-2.4Z"/><path class="cls-1" d="M254.12,97.92h2.41v25.76h-2.41Z"/><path class="cls-1" d="M263.33,97.92h3.6l9.38,21.61,9.39-21.61h3.42v25.76h-2.4V101h-.08l-9.82,22.7h-1.05l-10-22.7h-.07v22.7h-2.4Z"/><path class="cls-1" d="M294.25,110.8a14.39,14.39,0,0,1,1-5.42A12.82,12.82,0,0,1,298,101.1a12.17,12.17,0,0,1,4.2-2.81,14.8,14.8,0,0,1,10.8,0,12.17,12.17,0,0,1,4.2,2.81,12.87,12.87,0,0,1,2.73,4.28,15.24,15.24,0,0,1,0,10.86,12.66,12.66,0,0,1-2.73,4.29,12.14,12.14,0,0,1-4.2,2.8,15.12,15.12,0,0,1-10.8,0,12.14,12.14,0,0,1-4.2-2.8,12.66,12.66,0,0,1-2.73-4.29A14.67,14.67,0,0,1,294.25,110.8Zm2.4,0a12.85,12.85,0,0,0,.76,4.47,10.63,10.63,0,0,0,2.18,3.6,10.35,10.35,0,0,0,3.44,2.41,12.23,12.23,0,0,0,9.06,0,10.35,10.35,0,0,0,3.44-2.41,10.63,10.63,0,0,0,2.18-3.6,13.49,13.49,0,0,0,0-9,10.63,10.63,0,0,0-2.18-3.6,10.18,10.18,0,0,0-3.44-2.4,12.23,12.23,0,0,0-9.06,0,10.18,10.18,0,0,0-3.44,2.4,10.63,10.63,0,0,0-2.18,3.6A13,13,0,0,0,296.65,110.8Z"/><path class="cls-1" d="M332,100.1h-8.8V97.92h20v2.18h-8.8v23.58H332Z"/><path class="cls-1" d="M345.46,110.8a14.39,14.39,0,0,1,1-5.42,13,13,0,0,1,2.72-4.28,12.21,12.21,0,0,1,4.21-2.81,14.8,14.8,0,0,1,10.8,0,12.17,12.17,0,0,1,4.2,2.81,12.87,12.87,0,0,1,2.73,4.28,15.24,15.24,0,0,1,0,10.86,12.66,12.66,0,0,1-2.73,4.29,12.14,12.14,0,0,1-4.2,2.8,15.12,15.12,0,0,1-10.8,0,12.18,12.18,0,0,1-4.21-2.8,12.78,12.78,0,0,1-2.72-4.29A14.46,14.46,0,0,1,345.46,110.8Zm2.41,0a12.85,12.85,0,0,0,.76,4.47,10.63,10.63,0,0,0,2.18,3.6,10.35,10.35,0,0,0,3.44,2.41,12.23,12.23,0,0,0,9.06,0,10.35,10.35,0,0,0,3.44-2.41,10.63,10.63,0,0,0,2.18-3.6,13.49,13.49,0,0,0,0-9,10.63,10.63,0,0,0-2.18-3.6,10.18,10.18,0,0,0-3.44-2.4,12.23,12.23,0,0,0-9.06,0,10.18,10.18,0,0,0-3.44,2.4,10.63,10.63,0,0,0-2.18,3.6A13,13,0,0,0,347.87,110.8Z"/><path class="cls-1" d="M147.7,0V76.68h76.69V0Zm72.72,72.72H151.67V4h68.75Z"/><path class="cls-1" d="M164.06,46.42H178a18.12,18.12,0,0,0,5.12-.74l29.43,21.46V11.8H208V58.28L187.84,43.56a18.43,18.43,0,0,0-9.84-34H159.56V28.39l1,.72h0l11.24,8.3h5.32a14.85,14.85,0,0,0,2.1-.16l-15.13-11V14.05H178a13.95,13.95,0,0,1,7.78,25.51,14.64,14.64,0,0,1-2,1.13A15.72,15.72,0,0,1,178,41.92h-18.4V67h4.5Z"/></g></g></svg>